<svg width="47" height="54" viewBox="0 0 47 54" fill="none" xmlns='http://www.w3.org/2000/svg'>
<path fill-rule="evenodd" clip-rule="evenodd" d="M18.7335 2.48351L15.3136 0.460938H18.3132L18.7335 2.48351ZM6.69667 8.38555L2.60007 7.12818L0.0283203 12.0671L0.209074 16.3422L6.69667 8.38555ZM0.491455 17.2255L7.32904 19.0632L6.27628 23.7178L3.19864 21.3488L0.491455 17.2255ZM7.0629 23.9173L13.0067 24.3278L18.1755 24.3272L17.2404 17.7821L7.0629 23.9173ZM18.4868 24.8708L21.2418 27.333L17.2311 27.7409L18.4868 24.8708ZM22.6085 33.8917L21.2161 36.696L20.6437 39.8508L26.2904 40.3826L22.6085 33.8917ZM21.8183 46.4196L27.8821 45.0251L24.1766 48.9757L21.8183 46.4196ZM24.3862 49.6046L30.1808 52.431L24.4458 53.4609L24.3862 49.6046ZM27.9047 4.21493L26.6418 2.73385L24.6996 4.93851L29.1039 7.45852L27.9047 4.21493ZM32.0839 11.6661L33.6808 7.39199L38.6112 12.9258L32.0839 11.6661ZM32.4251 17.2109L32.5237 27.5364L42.5684 19.9548L39.0623 16.0612C39.0294 16.0252 39.0109 15.9788 39.0099 15.9306L38.9657 13.5825L32.4251 17.2109ZM43.0966 20.1861H46.0283L43.6474 25.564L43.0966 20.1861ZM33.0725 27.6329L43.297 26.1825L42.701 20.3653L33.0725 27.6329ZM41.4514 28.647L34.4874 34.2882L32.5874 28.1115L43.0452 26.6279L41.4514 28.647ZM24.5126 49.2137L30.4994 52.1333L28.3928 45.0778L24.5126 49.2137ZM26.6017 40.9882L28.1996 44.536L22.0269 45.9548L26.6017 40.9882ZM26.724 40.315L33.8524 34.7886L22.9692 33.6958L26.724 40.315ZM32.3573 40.8272L32.348 40.827L32.3367 40.8246L27.207 40.4569L34.2799 34.9728L36.6248 41.5776L32.3573 40.8272ZM35.6147 44.7274L32.3151 41.3148L28.9796 44.4924L35.6147 44.7274ZM28.5572 44.3304L26.9891 40.8481L31.8476 41.1963L28.5572 44.3304ZM34.0929 34.4052L32.2 28.2474L23.2528 33.3166L34.0929 34.4052ZM21.547 27.7098L22.3064 32.8918L17.3606 28.1354L21.547 27.7098ZM22.7575 33.1297L31.6051 28.1166L21.9611 27.7014L22.7575 33.1297ZM30.2856 27.6537L21.8049 27.2886L19.1568 24.9219L30.2856 27.6537ZM31.7006 27.5829L25.0336 20.5003L18.9184 24.4454L31.7006 27.5829ZM24.6123 20.2877L18.5701 24.1853L17.6524 17.7557L24.6123 20.2877ZM25.0562 13.7489L19.1702 9.92284L17.6833 17.0961L25.0562 13.7489ZM7.74286 19.0981L16.4224 17.7994L6.7128 23.6528L7.74286 19.0981ZM0.383353 16.7759L7.35319 18.6492L6.86714 8.82416L0.383353 16.7759ZM14.6806 7.23654L14.7711 0.613451L18.7067 2.94044L14.6806 7.23654ZM14.8204 7.68507L18.8239 9.28696V3.41338L14.8204 7.68507ZM19.2349 8.6605V3.10227L21.7988 3.15848L19.2349 8.6605ZM19.3685 9.56586L25.2196 13.3694L24.2239 5.39473L19.3685 9.56586ZM25.6152 13.2173L24.6359 5.37114L29.1974 7.98138L25.6152 13.2173ZM28.3743 4.3003L29.5396 7.45366L31.6328 4.13473L28.3743 4.3003ZM31.9976 4.32511L33.3047 6.86143L29.926 7.61073L31.9976 4.32511ZM26.3911 13.2849L31.6482 11.6558L33.1444 7.65387L26.3911 13.2849ZM32.3994 16.7601L32.0325 12.0697L38.5773 13.3325L32.3994 16.7601ZM32.1106 27.4223L32.0161 17.4043L25.4128 20.3066L32.1106 27.4223ZM24.8784 19.9522L17.9371 17.4272L25.2515 14.1068L24.8784 19.9522ZM31.7366 17.0828L25.6646 14.0985L25.2936 19.9151L31.7366 17.0828ZM31.6215 12.0894L31.9853 16.7517L26.0263 13.8233L31.6215 12.0894ZM32.8341 7.38166L29.6167 8.09511L26.4794 12.68L32.8341 7.38166ZM13.9161 13.1432L14.6344 8.04873L18.6163 9.64181L13.9161 13.1432ZM18.7191 10.0739L13.9531 13.6236L17.2774 17.0291L18.7191 10.0739ZM13.6325 13.8802L16.9763 17.3062L8.2286 18.6151L13.6325 13.8802ZM7.75724 18.4853L13.3273 13.6059L7.27438 8.72643L7.75724 18.4853ZM13.4907 13.2137L7.59416 8.46009L14.2285 7.98331L13.4907 13.2137ZM19.6162 8.81524L24.0708 4.98763L22.1862 3.29904L19.6162 8.81524ZM14.359 0.647275L14.2645 7.57397L7.48955 8.06088L12.5165 1.89584L14.359 0.647275ZM11.7839 2.14618L6.43535 3.84479L7.16802 7.8075L11.7839 2.14618ZM6.78288 7.98716L2.90917 6.79824L6.06295 4.09321L6.78288 7.98716ZM20.6468 40.2587L21.5655 45.8525L26.2328 40.7847L20.6468 40.2587ZM30.9042 52.0543L28.7658 44.8904L35.7298 45.1375L30.9042 52.0543ZM32.9039 41.3353L36.0062 44.5451L36.6793 41.9994L32.9039 41.3353ZM37.005 41.4197L34.7464 35.0565L39.9152 37.7302L37.005 41.4197ZM34.7495 34.6003L40.0683 37.3515L41.3158 29.2823L34.7495 34.6003Z" fill="rgba(194,20,45)"></path>
</svg>