	<svg width="60" height="55" viewBox="0 0 60 55" fill="none" xmlns='http://www.w3.org/2000/svg'>
	<path fill-rule="evenodd" clip-rule="evenodd" d="M49.665 0.460938L55.295 4.38781L54.8423 0.956412L49.665 0.460938ZM51.7539 8.00367L49.4065 0.619884L55.2536 4.69805L51.7539 8.00367ZM56.4805 3.42488C56.5095 3.39464 56.5489 3.37878 56.5918 3.38247L58.1014 3.50561L57.3984 0.968162H55.1236L55.5722 4.37648L56.4805 3.42488ZM58.3295 3.29097L57.735 1.14595L59.0283 1.98984L58.3295 3.29097ZM34.8632 7.46349L39.184 3.56283L35.0235 4.51568L34.8632 7.46349ZM21.9677 4.17115H25.9844L26.3273 5.01525L24.3137 6.84258L17.754 7.12947L21.9677 4.17115ZM15.3064 10.0636L14.1541 10.3035L15.6907 13.0379L17.0566 7.61889L15.2027 8.92057L15.4142 9.89761C15.4218 9.93391 15.4149 9.97194 15.3949 10.0031C15.3748 10.0342 15.343 10.0561 15.3064 10.0636ZM11.9505 10.3459L11.5551 11.5752L13.1311 13.8394L13.1346 13.8458L13.1436 13.8635L13.1491 13.8779L13.1519 13.8846L13.4968 15.2329L14.7044 14.7353L11.9505 10.3459ZM2.63146 36.0538L6.69516 35.9767L3.8653 38.1783L3.74157 36.9297C3.73742 36.8904 3.71738 36.8546 3.68558 36.8312L2.63146 36.0538ZM10.2066 39.7678L4.9201 38.6175L11.025 39.3486L10.2066 39.7678ZM25.148 50.1991L22.2539 47.2036L26.2989 46.5324L26.1724 49.0043L25.148 50.1991ZM6.6924 42.7173L12.6397 42.3485L10.2156 40.0949L6.6924 42.7173ZM6.4954 43.0086L12.4883 42.637L8.34235 45.5479L6.4954 43.0086ZM11.7369 48.6785C11.7473 48.654 11.7653 48.6331 11.7874 48.6183L13.3883 47.5443L13.427 46.0233L8.6769 48.0735C8.65893 48.0811 8.64026 48.0848 8.62229 48.0848C8.58013 48.0848 8.53865 48.0653 8.5117 48.0299C8.47368 47.9791 8.47437 47.9085 8.51377 47.8586L12.2664 43.1323L8.39004 45.8542C8.32783 45.8975 8.24281 45.8833 8.19857 45.8223L6.13527 42.9856L3.87152 41.3627L6.82235 44.743L6.82304 44.7441C6.83479 44.7582 6.84378 44.7747 6.84931 44.7927L6.85207 44.8077L6.85348 44.813C6.85521 44.8193 6.85691 44.8255 6.85691 44.8322L6.89078 46.6261L9.27273 49.326H11.4563L11.7369 48.6785ZM15.7965 13.585L22.5103 16.5116L15.1253 14.7106L15.7965 13.585ZM56.0623 6.53853L55.3807 8.25259L52.0255 8.1291L55.4201 4.92299L56.0623 6.53853ZM53.0327 11.3267C53.0375 11.3099 53.0458 11.2943 53.0569 11.2804L55.1969 8.52459L51.8382 8.40097L52.058 11.4024C52.0587 11.4162 52.058 11.43 52.0546 11.4434L50.8235 16.9017L53.0804 19.7182L53.7591 15.6647L52.4472 13.4807C52.4271 13.4473 52.4223 13.4068 52.4334 13.3693L53.0327 11.3267ZM48.2397 10.7833L47.2278 3.48753L51.4864 8.23827L48.2397 10.7833ZM42.4217 11.9323L48.3738 12.8235L48.0268 11.196L42.4217 11.9323ZM44.8845 14.865C44.8576 14.8802 44.8361 14.9042 44.8237 14.9331L43.3196 18.5483L41.6095 12.0922L48.125 13.068L44.8845 14.865ZM38.9552 24.4808L46.549 21.2736L43.3182 19.1636L38.9552 24.4808ZM46.2545 26.2933L45.1624 27.4921L46.7522 22.0987L46.8428 23.61L46.2545 26.2933ZM45.2654 33.8266L45.723 31.8318L44.5272 30.5397C44.5002 30.5105 44.4871 30.4711 44.4905 30.4314L44.6924 28.3208L41.9282 30.2953L43.9147 31.4856C43.9355 31.4979 43.9521 31.5153 43.9645 31.5362L45.2654 33.8266ZM40.4489 31.4724L32.869 26.8078L38.4278 24.995L41.5044 30.2882L40.4489 31.4724ZM41.3683 34.5097L42.3581 32.2152L40.5782 31.8174L39.1315 37.9619L41.3683 34.5097ZM43.5899 36.8851L39.1515 38.4417L41.5134 34.796L43.5899 36.8851ZM38.8868 38.967L37.5631 43.8368L41.4934 41.4228L38.8868 38.967ZM38.8398 45.4352L39.8407 47.7424L35.9767 47.4498L37.3917 44.3528L38.8398 45.4352ZM36.1862 47.7449L38.0767 49.3426L39.7031 48.0112L36.1862 47.7449ZM37.7228 52.0413L35.8046 52.4955L35.9968 51.4519C36.0051 51.4068 35.9906 51.3605 35.9581 51.3281L34.8943 50.2578L35.7362 49.8344L37.7228 52.0413ZM37.8417 52.2994L35.9187 52.7545L37.8043 54.4609L37.8417 52.2994ZM36.9686 44.2112L34.1236 46.0509L31.076 43.1074L36.9686 44.2112ZM21.2606 41.8939L15.9016 37.6496L13.3703 40.8753L21.2606 41.8939ZM7.11059 36.0058L11.0174 39.0671L4.22128 38.2533L7.11059 36.0058ZM6.90391 35.6941L5.94311 33.3986L2.6598 35.7746L6.90391 35.6941ZM1.96098 33.4327L2.07434 35.7959L0.0283203 35.9865L1.96098 33.4327ZM13.577 15.5009L16.7455 24.3933L14.808 14.9937L13.577 15.5009ZM17.3552 25.9785L15.0894 14.9885L23.8126 17.1156L17.3552 25.9785ZM15.9036 13.328L23.6536 16.7062L17.3428 7.61875L15.9036 13.328ZM23.9218 16.6063L17.5404 7.41753L24.2266 7.12515L23.9218 16.6063ZM41.3026 11.6869L41.662 7.47712L35.1514 7.90237L41.3026 11.6869ZM41.5902 7.20268L35.0968 7.62682L39.6354 3.53001L41.5902 7.20268ZM39.8815 3.40312L41.8252 7.05416L44.9267 2.24773L39.8815 3.40312ZM47.7158 10.9559L41.5736 11.7628L41.933 7.55889L47.7158 10.9559ZM45.1748 2.37421L42.0083 7.28097L47.892 10.7368C46.9665 7.87136 45.4043 3.04351 45.1748 2.37421ZM37.7546 18.4832L41.3731 12.2813L43.1067 18.8277L37.7546 18.4832ZM43.0106 19.1007L37.6875 18.7579L38.6511 24.4142L43.0106 19.1007ZM32.6471 26.5871L31.6794 21.3083L38.1396 24.7963L32.6471 26.5871ZM32.7321 27.0504L33.5754 31.6494L39.999 31.5219L32.7321 27.0504ZM29.0341 36.0373L33.516 31.9292L39.708 31.8062L29.0341 36.0373ZM40.2471 32.0148L33.2374 37.6902L38.7084 38.5501L40.2471 32.0148ZM28.3208 36.6812L30.4435 42.7275L22.0825 41.9868L28.3208 36.6812ZM21.6933 41.8825L25.0312 35.3861L16.1884 37.5225L21.6933 41.8825ZM26.2042 28.3025L25.1702 35.066L16.3771 37.1905L26.2042 28.3025ZM7.1334 35.5241L10.5356 29.8867L6.1726 33.2289L7.1334 35.5241ZM11.2303 29.3901L17.1133 26.5495L15.7917 37.0375L11.2303 29.3901ZM7.33316 35.7291L15.6023 37.2613L11.0326 29.6001L7.33316 35.7291ZM26.0964 28.0254L16.0626 37.1004L17.4015 26.476L26.0964 28.0254ZM17.5259 26.2153L26.2215 27.7646L23.9764 17.3613L17.5259 26.2153ZM29.7378 12.6447L29.7398 12.6511L24.1942 16.7477L24.4976 7.30795L29.7378 12.6447ZM24.649 7.0655L29.8781 12.391L29.9935 12.2767L33.4863 5.29191L24.649 7.0655ZM37.2838 18.2445L30.1276 12.6277L30.2202 12.4426L34.6337 8.06034L37.2838 18.2445ZM34.9282 8.09107L37.5714 18.2478L41.2328 11.9707L34.9282 8.09107ZM30.156 13.0035L37.3944 18.6844L38.4057 24.624L31.6151 20.9576L30.156 13.0035ZM31.4126 21.3884L26.7226 27.7349L32.3789 26.6576L31.4126 21.3884ZM26.8077 28.0022L32.4287 26.9315L33.272 31.5296L26.8077 28.0022ZM33.2236 31.8199L26.6058 28.2085L28.4652 36.1819L33.2236 31.8199ZM32.8766 37.625L28.8108 36.4252L39.6803 32.1165L32.8766 37.625ZM38.3691 38.7785L32.9907 37.9331L30.9315 42.583L38.3691 38.7785ZM30.6605 42.5095L28.6048 36.6547L32.7162 37.8679L30.6605 42.5095ZM25.446 35.092L28.1887 36.2139L26.4289 28.669L25.446 35.092ZM31.284 21.095L26.471 27.609L24.246 17.2949L31.284 21.095ZM31.3027 20.7889L29.8573 12.9097L24.3054 17.0111L31.3027 20.7889ZM25.3575 35.3565L28.1203 36.4868L22.1827 41.537L25.3575 35.3565ZM5.59335 33.3083L2.22641 33.1888L2.3453 35.6596L5.59335 33.3083ZM11.5164 39.105L7.64214 36.0696L15.3901 37.5052L11.5164 39.105ZM38.5979 38.9741L31.0718 42.8235L37.2375 43.9782L38.5979 38.9741ZM35.7168 47.3531L34.3434 46.2402L37.0136 44.5134L35.7168 47.3531ZM34.2922 46.5565L34.7712 50.0083L35.6297 49.5764V47.6403L34.2922 46.5565ZM41.6772 41.2142L39.0755 38.7632L43.5767 37.1846L41.6772 41.2142ZM38.8453 25.162L41.718 30.1039L44.5908 28.0517L38.8453 25.162ZM38.8225 24.839L46.6278 21.5422L44.7732 27.8321L38.8225 24.839ZM47.5115 8.65917L47.7814 9.4935L46.9008 3.14454L45.4493 2.32123C45.4707 2.38415 45.499 2.46835 45.5336 2.57369C45.6026 2.78066 45.6951 3.06404 45.8055 3.40199L45.8605 3.57048C46.1301 4.39539 46.4868 5.49564 46.8434 6.5961C47.0746 7.30866 47.3051 8.02125 47.5115 8.65917ZM49.0996 0.567945L51.3613 7.68279L47.2084 3.0499L49.0996 0.567945ZM30.6094 11.6651L34.5466 7.75552L33.7171 5.45093L30.6094 11.6651ZM26.5457 5.19276L32.3796 5.2301L24.8363 6.74399L26.5457 5.19276ZM9.8976 39.9855L3.77889 38.6542L3.14504 40.4998L6.23204 42.7131L9.8976 39.9855ZM13.4152 45.7254L9.07435 47.5987L12.8892 42.794L13.4152 45.7254ZM13.6737 47.2137L15.9769 44.3523L13.7076 45.8852L13.6737 47.2137ZM13.6696 45.5754L13.1491 42.6748L16.3529 43.7626L13.6696 45.5754ZM15.4433 37.7846L11.7342 39.3163L13.1007 40.7693L15.4433 37.7846ZM22.1011 46.9466L21.8931 42.4231L26.1399 46.2764L22.1011 46.9466ZM22.1392 42.2713L26.4503 46.1829L30.297 42.9942L22.1392 42.2713Z" fill="rgba(194,20,45)"></path>
	</svg>