<svg width="32px" height="32px" viewBox="0 0 82 82" version="1.1" xmlns="http://www.w3.org/2000/svg" xmlns:xlink="http://www.w3.org/1999/xlink">
    <g id="Icons" stroke="none" stroke-width="1" fill="none" fill-rule="evenodd">
        <g id="Desktop-HD" transform="translate(-942.000000, -748.000000)" fill="#C7FF00" fill-rule="nonzero">
            <g id="icon-applications" transform="translate(942.000000, 748.000000)">
                <path d="M35.582082,0 L2.41791805,0 C1.08306609,0 0,1.08331884 0,2.4184823 L0,35.5815177 C0,36.9166812 1.08306609,38 2.41791805,38 L35.582082,38 C36.9169339,38 38,36.9166812 38,35.5815177 L38,2.4184823 C38,1.08331884 36.9169339,0 35.582082,0 Z M33.1641639,33.1630354 L4.83583609,33.1630354 L4.83583609,4.83696459 L33.1641639,4.83696459 L33.1641639,33.1630354 Z" id="Shape"></path>
                <path d="M79.5817229,0 L46.4182771,0 C45.0832269,0 44,1.08331884 44,2.4184823 L44,35.5815177 C44,36.9166812 45.0832269,38 46.4182771,38 L79.5817229,38 C80.9167731,38 82,36.9166812 82,35.5815177 L82,2.4184823 C82,1.08331884 80.9136293,0 79.5817229,0 L79.5817229,0 Z M77.1634458,33.1630354 L48.8365542,33.1630354 L48.8365542,4.83696459 L77.1634458,4.83696459 L77.1634458,33.1630354 Z" id="Shape"></path>
                <path d="M35.582082,44 L2.41791805,44 C1.08306609,44 0,45.0833188 0,46.4184823 L0,79.5815177 C0,80.9166812 1.08306609,82 2.41791805,82 L35.582082,82 C36.9169339,82 38,80.9166812 38,79.5815177 L38,46.4184823 C38,45.0833188 36.9169339,44 35.582082,44 Z M33.1641639,77.1630354 L4.83583609,77.1630354 L4.83583609,48.8369646 L33.1641639,48.8369646 L33.1641639,77.1630354 Z" id="Shape"></path>
                <path d="M79.5817229,44 L46.4182771,44 C45.0832269,44 44,45.0833188 44,46.4184823 L44,79.5815177 C44,80.9166812 45.0832269,82 46.4182771,82 L67.546764,82 C68.8818141,82 69.965041,80.9166812 69.965041,79.5815177 C69.965041,78.2463542 68.8818141,77.1630354 67.546764,77.1630354 L48.8365542,77.1630354 L48.8365542,48.8369646 L77.1634458,48.8369646 L77.1634458,79.5815177 C77.1634458,80.9166812 78.2466727,82 79.5817229,82 C80.9167731,82 82,80.9166812 82,79.5815177 L82,46.4184823 C82,45.0833188 80.9136293,44 79.5817229,44 L79.5817229,44 Z" id="Path"></path>
            </g>
        </g>
    </g>
</svg>