<svg width="31" height="30" viewBox="0 0 31 30"  xmlns="http://www.w3.org/2000/svg">
<path fill-rule="evenodd" clip-rule="evenodd" d="M11.2891 3.08787C12.7391 1.27031 14.9379 0.117526 17.4571 0.0315393L17.7609 0.0263672C21.9 0.0263672 25.2622 2.99483 25.8655 6.76156L25.8761 6.83437L26.0017 6.88804C28.4159 7.96208 30.0554 10.2431 30.1586 12.8527L30.1638 13.1148C30.1638 16.9237 26.9261 20.004 22.9736 20.004H7.33531C3.27188 20.004 0.145142 17.2919 0.145142 13.7347C0.145142 11.171 1.75899 8.80189 4.14933 7.85673L4.21214 7.83337L4.23386 7.71895C4.5676 6.10128 5.4772 4.75938 6.78286 3.9354L6.99229 3.80963C8.23244 3.10168 9.70675 2.87404 11.1225 3.14223L11.2291 3.16437L11.2891 3.08787ZM23.9508 7.61773C23.7582 4.55871 21.1018 2.02637 17.7609 2.02637C15.5067 2.02637 13.5902 3.12443 12.4838 4.84981L12.0618 5.50779L11.3215 5.25725C10.1998 4.87771 8.96895 4.98418 7.98378 5.54657C6.9317 6.14711 6.23453 7.26654 6.11207 8.67778L6.051 9.38156L5.36727 9.5592C3.48136 10.0492 2.14514 11.8234 2.14514 13.7347C2.14514 16.1191 4.31822 18.004 7.33531 18.004H22.9736C25.8432 18.004 28.1638 15.7963 28.1638 13.1148C28.1638 11.0255 26.7393 9.18121 24.6426 8.50686L23.9936 8.29812L23.9508 7.61773Z" fill="#C7FF00"></path>
<path fill-rule="evenodd" clip-rule="evenodd" d="M8.13159 24.999C8.13159 23.3422 6.78845 21.999 5.13159 21.999C3.47474 21.999 2.13159 23.3422 2.13159 24.999C2.13159 26.6559 3.47474 27.999 5.13159 27.999C6.78845 27.999 8.13159 26.6559 8.13159 24.999ZM4.13159 24.999C4.13159 24.4467 4.57931 23.999 5.13159 23.999C5.68388 23.999 6.13159 24.4467 6.13159 24.999C6.13159 25.5513 5.68388 25.999 5.13159 25.999C4.57931 25.999 4.13159 25.5513 4.13159 24.999Z" fill="#C7FF00"></path>
<rect x="14.1545" y="18.999" width="2" height="6.35132" rx="1" fill="#C7FF00"></rect>
<rect x="19.1316" y="18.999" width="2" height="7" rx="1" fill="#C7FF00"></rect>
<rect x="24.1316" y="23.999" width="2" height="5" rx="1" transform="rotate(90 24.1316 23.999)" fill="#C7FF00"></rect>
<rect width="2" height="7" rx="1" transform="matrix(-1 0 0 1 11.1316 18.999)" fill="#C7FF00"></rect>
<rect width="2" height="4" rx="1" transform="matrix(0 1 1 0 7.13159 23.999)" fill="#C7FF00"></rect>
<path fill-rule="evenodd" clip-rule="evenodd" d="M28.1316 24.999C28.1316 23.3422 26.7884 21.999 25.1316 21.999C23.4747 21.999 22.1316 23.3422 22.1316 24.999C22.1316 26.6559 23.4747 27.999 25.1316 27.999C26.7884 27.999 28.1316 26.6559 28.1316 24.999ZM24.1316 24.999C24.1316 24.4467 24.5793 23.999 25.1316 23.999C25.6839 23.999 26.1316 24.4467 26.1316 24.999C26.1316 25.5513 25.6839 25.999 25.1316 25.999C24.5793 25.999 24.1316 25.5513 24.1316 24.999Z" fill="#C7FF00"></path>
<path fill-rule="evenodd" clip-rule="evenodd" d="M18.1316 26.999C18.1316 25.3422 16.7884 23.999 15.1316 23.999C13.4747 23.999 12.1316 25.3422 12.1316 26.999C12.1316 28.6559 13.4747 29.999 15.1316 29.999C16.7884 29.999 18.1316 28.6559 18.1316 26.999ZM14.1316 26.999C14.1316 26.4467 14.5793 25.999 15.1316 25.999C15.6839 25.999 16.1316 26.4467 16.1316 26.999C16.1316 27.5513 15.6839 27.999 15.1316 27.999C14.5793 27.999 14.1316 27.5513 14.1316 26.999Z" fill="#C7FF00"></path>
</svg>