<svg width="31" height="30" viewBox="0 0 31 30" fill="none" xmlns="http://www.w3.org/2000/svg">
<path fill-rule="evenodd" clip-rule="evenodd" d="M29.4106 5.41933C29.297 2.95938 27.2155 0.999023 24.6644 0.999023H6.16666L5.94918 1.00379C3.42615 1.11462 1.41553 3.14406 1.41553 5.63138V17.3667L1.42042 17.5787C1.53409 20.0387 3.61557 21.999 6.16666 21.999H24.6644L24.8819 21.9943C27.4049 21.8834 29.4155 19.854 29.4155 17.3667V5.63138L29.4106 5.41933ZM6.16666 2.99902H24.6644L24.8396 3.00425C26.2871 3.09094 27.4155 4.24453 27.4155 5.63138V17.3667L27.4102 17.5319C27.3212 18.8988 26.1361 19.999 24.6644 19.999H6.16666L5.99148 19.9938C4.54399 19.9071 3.41553 18.7535 3.41553 17.3667V5.63138L3.42089 5.46613C3.50987 4.09928 4.69495 2.99902 6.16666 2.99902Z" fill="#C7FF00"></path>
<path fill-rule="evenodd" clip-rule="evenodd" d="M6.41553 27.1564C6.41553 27.0672 6.47565 26.9893 6.56187 26.9667L9.09482 26.3026C11.0513 25.7897 12.4155 24.0216 12.4155 21.999L18.4155 21.999C18.4155 24.0216 19.7798 25.7897 21.7362 26.3026L24.2692 26.9667C24.3554 26.9893 24.4155 27.0672 24.4155 27.1564V27.8735C24.4155 28.4951 23.9116 28.999 23.29 28.999H7.54102C6.91943 28.999 6.41553 28.4951 6.41553 27.8735V27.1564Z" fill="#C7FF00"></path>
<path d="M15.4155 5.99902C16.9506 5.99902 18.1655 7.21397 18.1655 8.74902C18.1655 9.57107 17.8067 10.2841 17.2417 10.7901C16.9554 11.0498 16.787 11.4347 16.7905 11.8213V15.624C16.7905 16.4096 16.2011 16.999 15.4155 16.999C14.63 16.999 14.0405 16.4096 14.0405 15.624V11.8213C14.0474 11.4348 13.8757 11.0498 13.5894 10.7901C13.0245 10.2841 12.6655 9.57107 12.6655 8.74902C12.6655 7.21397 13.8805 5.99902 15.4155 5.99902Z" fill="#C7FF00"></path>
</svg>