	<svg width="31" height="30" viewBox="0 0 31 30" fill="none" xmlns="http://www.w3.org/2000/svg">
	<path fill-rule="evenodd" clip-rule="evenodd" d="M29.2663 4.59403C29.1647 2.59149 27.5082 0.999023 25.4796 0.999023H5.06327L4.86816 1.00396C2.86479 1.10546 1.27167 2.7613 1.27167 4.78907V25.197L1.2766 25.392C1.37815 27.3946 3.03467 28.9871 5.06327 28.9871H25.4796L25.6747 28.9821C27.6781 28.8806 29.2712 27.2248 29.2712 25.197V4.78907L29.2663 4.59403ZM5.06327 2.99902H25.4796L25.6266 3.00496C26.5475 3.07965 27.2712 3.85006 27.2712 4.78907V25.197L27.2653 25.3438C27.1906 26.2636 26.4198 26.9871 25.4796 26.9871H5.06327L4.91631 26.9811C3.99542 26.9064 3.27167 26.136 3.27167 25.197V4.78907L3.27761 4.64228C3.35233 3.72248 4.1231 2.99902 5.06327 2.99902Z" fill="#C7FF00"></path>
	<rect x="14.2712" y="2.99902" width="2" height="24" fill="#C7FF00"></rect>
	<rect x="27.2712" y="13.999" width="2" height="24" transform="rotate(90 27.2712 13.999)" fill="#C7FF00"></rect>
	<rect x="5.27124" y="7.45996" width="7" height="2" rx="1" fill="#C7FF00"></rect>
	<rect x="18.2712" y="7.45996" width="7" height="2" rx="1" fill="#C7FF00"></rect>
	<rect x="9.77124" y="4.99902" width="7" height="2" rx="1" transform="rotate(90 9.77124 4.99902)" fill="#C7FF00"></rect>
	<rect x="20.0314" y="18.2891" width="7" height="2" rx="1" transform="rotate(45 20.0314 18.2891)" fill="#C7FF00"></rect>
	<rect x="24.9532" y="19.7305" width="7" height="2" rx="1" transform="rotate(135 24.9532 19.7305)" fill="#C7FF00"></rect>
	<rect x="5.27124" y="18.999" width="7" height="2" rx="1" fill="#C7FF00"></rect>
	<rect x="5.27124" y="21.999" width="7" height="2" rx="1" fill="#C7FF00"></rect>
	</svg>