<svg width="58" height="39" viewBox="0 0 58 39" fill="none" xmlns='http://www.w3.org/2000/svg'>
<path fill-rule="evenodd" clip-rule="evenodd" d="M18.9101 36.7011L16.0404 32.407L16.9197 30.929L21.5205 35.1249L18.9101 36.7011ZM6.50364 38.0907L1.93056 32.5305L7.96047 31.9282C7.97467 31.9268 7.98769 31.9201 8.00071 31.9161L8.03029 31.9097L11.2573 30.4938L8.84444 34.8701L6.50364 38.0907ZM5.41673 26.0936L4.03469 24.7101L7.89184 24.5703L9.10596 25.1143C9.18998 25.1522 9.2882 25.1366 9.35802 25.0743L11.5709 23.0823V29.828L8.17466 31.3188V28.6938C8.17466 28.6242 8.14508 28.5579 8.09419 28.5117L5.41673 26.0936ZM2.30486 20.3219L4.14983 19.3773L5.77363 21.6764L0.917731 23.8582L0.0283203 22.4271L2.30486 20.3219ZM5.34679 15.752L7.64925 19.1476L6.13467 21.3594L4.48235 19.0197L5.34679 15.752ZM3.48348 24.2445L1.71803 24.0287L6.05775 22.0787L7.48476 24.0993L3.48348 24.2445ZM7.96284 23.9477L6.42862 21.7756L7.91787 19.6005L9.45978 22.3478L7.96284 23.9477ZM14.6417 20.0666L17.832 20.9576L18.6675 28.4154L12.1567 22.5377L14.6417 20.0666ZM25.2836 15.6349L27.6314 11.9906L37.5964 14.9936L24.4908 17.1332L25.2836 15.6349ZM24.1559 13.29L26.9261 12.2038L25.099 15.04L24.1559 13.29ZM23.3571 9.6879L26.9616 11.6701L23.879 12.8787L22.4495 11.3457L23.3571 9.6879ZM20.1715 10.0404L19.1479 3.29948L22.6317 6.60183L20.1715 10.0404ZM21.0212 13.9387L18.0687 18.2157L16.5954 15.6294C16.5528 15.5548 16.4747 15.5089 16.3907 15.5089H13.4465L16.7173 8.4385L19.8283 10.8088L21.0212 13.9387ZM11.5567 11.3697L16.0866 8.67064L12.9223 15.5089H11.1236L11.5567 11.3697ZM15.0713 5.76449L18.6355 3.08018L19.7017 10.1069L16.7919 7.88976L15.0713 5.76449ZM23.4849 9.20762L23.2672 7.28905L26.4173 10.82L23.4849 9.20762ZM22.8755 6.1711L19.2805 2.76347L25.3452 1.00689L22.8755 6.1711ZM27.1699 10.9442L23.2317 6.52913L25.6765 1.41883L27.1699 10.9442ZM33.1754 5.4874L38.1798 14.6635L27.7403 11.5175L26.0753 0.902203L30.3993 1.40017L33.1754 5.4874ZM23.0802 33.709L27.9497 33.7089L27.6196 34.7676C27.6148 34.7852 27.6113 34.8036 27.6101 34.8221L27.3249 38.4609L22.2448 35.0906L23.0802 33.709ZM18.9396 29.3372L22.6518 33.4946L21.8673 34.7916L17.2439 30.5755L18.9396 29.3372ZM24.8836 24.2998L24.8541 24.4232L19.1633 28.5784L18.3338 21.17L24.8836 24.2998ZM24.8505 23.7488L18.5775 20.7509L23.8754 17.8247L24.8505 23.7488ZM29.0384 30.5662L25.3866 24.0807L24.3275 17.6514L38.1952 15.387L29.0384 30.5662ZM41.524 6.76879L38.6295 14.493L33.8156 5.66538L41.524 6.76879ZM41.8388 6.27833L34.7434 1.85125L49.4655 0.460938L41.8388 6.27833ZM43.4966 5.61885L50.1412 0.550475L50.6607 2.61444L43.4966 5.61885ZM57.0283 20.8681L42.2825 6.65247L50.8015 3.07982L57.0283 20.8681ZM28.4479 33.7089H31.0809L27.8302 38.0807L28.0799 34.8885L28.4479 33.7089ZM28.6538 31.4504L28.1012 33.2237H24.2091L28.6538 31.4504ZM22.8222 32.9666L19.329 29.0533L24.6825 25.1443L22.8222 32.9666ZM28.6881 30.9162L23.2861 33.0711L25.2505 24.8103L28.6881 30.9162ZM46.4811 26.8292L35.5646 29.0275H31.559C31.5116 29.0275 31.4643 29.0423 31.4252 29.0698L29.8194 30.1934L38.6828 15.5041L46.4811 26.8292ZM38.9786 14.9165L41.9465 6.99536L56.6201 21.1402L38.9786 14.9165ZM46.9639 26.6875L39.2863 15.5383L56.9621 21.7744L46.9639 26.6875ZM38.3384 33.3541L35.9705 29.4405L45.9308 27.4346L38.3384 33.3541ZM31.5767 33.2243L31.5566 33.2237H28.5994L29.2313 31.193L31.6323 29.5128H35.4557L37.839 33.4504L31.5767 33.2243ZM34.1813 2.06934L40.7513 6.16807L33.6523 5.1519L34.1813 2.06934ZM15.599 32.2169L9.56984 34.5406L11.9377 30.2466L16.4688 30.754L15.599 32.2169ZM16.8001 30.303L12.0454 29.7705V23.0838L18.5929 28.9948L16.8001 30.303Z" fill="rgba(194,20,45)"></path>
</svg>