<svg width="47" height="47" fill="none" xmlns='http://www.w3.org/2000/svg'>
<path fill-rule="evenodd" clip-rule="evenodd" d="M23.03.46c-12.68 0-23 10.32-23 23s10.32 23 23 23 23-10.32 23-23-10.32-23-23-23Zm12.51 4.28c.7.47 1.37.97 2 1.51-.08.16-.1.28-.02.34.18.14-.2.83-.48 1.28l-.64-.54s-.6-1.6-.8-1.8c-.13-.13-.1-.52-.06-.79Zm-4.53 15.2-.4.57s-.47-.33-.34-.56c.05-.1.14-.13.2-.16.11-.05.19-.08.07-.28-.2-.33-.8-.73-.8-.73h-.54s-.86-.47-1.06 0c-.05.1-.1.22-.13.34-.14.38-.28.75-.54.83-.33.1-1.53 1.03-.93.9.6-.14.93-.4.93-.4.77-.2 1.1-.09 1.31-.02l.02.01.31.07c.37.08.91.19.96.33.07.2.94.93.94.93l.72.34.74-.47.6.07h1.2s.86-.24 1-.49c.13-.24.33-.88.33-.88h-1.67L33 19.5h-.47l.07.8-1.07-.36h-.52Zm2.52-1.83s.47-.2.67-.43c.2-.24.6 0 .6 0l.36-.9s.37.67.44.87c.06.2.8.53.8.53l-.4.4H33.93l-.4-.47Zm2.86 5.63c-.13-.43-.46-.9-.46-.9h-.67s.07 1.46.34 1.66c.26.2.86.8 1.06 1.14.2.33.8 1.06.8 1.06s.13-.51 0-1.15a3.26 3.26 0 0 0-.63-1.12c-.2-.26-.38-.5-.44-.69ZM20.54 10.6v-.01l.12-.08.16-.12c.5-.39.53-.44.57-.48l.3-.19c.26-.16.22-.2.2-.21 0-.02 0-.02.32-.12l.67-.2a4.15 4.15 0 0 0 1.33-1.2l.07-.2.06-.13c.05-.09.08-.14-.06-.34-.13-.17-.3.06-.31.05-.01-.01.02-.08.1-.31.15-.35.18-.52.2-.64.03-.1.04-.17.11-.3.07-.1.04-.1 0-.1-.07-.02-.18-.04 0-.5l.3-.72c.1-.19.02-.46-.2-.6l.4-.27c.4-.27.5-.42.63-.6s.08-.48-.1-.66l.33-.2c.13-.08.2-.08.25-.07.07 0 .1 0 .22-.33l.1-.3.1-.24.13-.3V1.2c3.26.51 6.29 1.73 8.92 3.48-.08.11-.2.25-.38.37-.23.16-.14.42-.06.66.05.15.1.3.06.4-.12.27 0 .67 0 .67s.92.74 1.22.87a2 2 0 0 1 .53.54l-.04.06s-.05.06-.5.26c-.43.2-1.21.6-1.21.6s-.81.27-.88 0c-.07-.26-.67-.4-.67-.4s-.26-.26-.6-.4c-.33-.13-.73-.46-.73-.46s-.6-.2-.86.06c-.1.1-.27.19-.44.28-.32.17-.68.36-.76.66-.07.24-.16.48-.24.7-.07.2-.13.37-.16.5a7.55 7.55 0 0 1-1.13 1.53c-.27.26-.6.8-.4 1.06.2.27.73.93.93.8l.2-.13.93.66s.77-1.64.72-1.65c-.05-.01-.3-.94.02-1.14.15-.1.28-.37.39-.61.12-.27.23-.5.34-.4.2.2-.27 1.67-.27 1.67l1.13.48s.8-.39.47 0c-.15.18-.36.36-.55.52-.22.2-.42.36-.45.47-.07.2-1.08 1.33-1.08 1.33h-.85s-.73-.27-1.2 0c-.47.26-1.4 1.2-1.4 1.2v.93s-.66-.4-.8 0c-.13.4 0 .9 0 .9l.27.56s-.13.25-.63.33a.74.74 0 0 1-.5-.1c-.13-.08-.2-.12-.27.1-.13.4 0 1 0 1l-.06.77s.33-1.04.26 0c-.04.62.14.55.17.6.02.02-.03.1-.24.43-.28.46-.26.49-.26.51 0 .03-.02.05-.27.36-.3.38-.43.63-.56.88-.1.19-.2.37-.37.62-.2.27-.32.55-.43.79-.12.25-.2.45-.33.54-.14.1-.1.18-.06.29.04.08.07.16.06.27a9.8 9.8 0 0 0 0 1.07s.5 1 .63 1.2l.12.2c.08.15.17.31.34.53l.27.33s.6-.2.8 0l.2.2h.93c.07 0 .13.02.19.03.11.03.21.06.34-.03.2-.13.73-.33.73-.33l.8.39.67.27c.1.28.06.59.03.86-.03.26-.06.48.04.6l.07.11c.23.3.61.83.8.83.2 0 .5.27.5.27v1.26l-.3.73-.07.4s-.14.67 0 1.07l.12.56c.08.4.16.84.31.97.23.2.36.86.36.86l.54 1.14 1.6-.54c.4-.13.73-.46 1-1.13.1-.28.17-.57.24-.83.08-.35.15-.65.3-.76a7.24 7.24 0 0 0 1.78-2.27c.07-.27-.13-1.93-.13-1.93s-.13-.47.13-.73a12.41 12.41 0 0 0 1.78-2.2c.26-.34.52-.7.55-.8.07-.2.2-1.13 0-1-.2.14-1 .54-1 .54s-.6-.87-.33-.8a3.6 3.6 0 0 0 1.93-.58c.6-.42 1.4-1.35 1.4-1.35v-1.03s-.33-.24-.53-.3c-.2-.07-.8-.14-.8-.14l-.53-.47s-1.34-.86-.87-.8c.47.07 2.26.8 2.26.8s1.14.07 1.34 0c.2-.06 1.33.74 1.53.9.15.13.48.6.75 1 .1.12.18.24.24.33l.8 1.06.01.04A22.56 22.56 0 0 1 17.95 45.4h.14l-.67-1.33s.13-.4-.07-.6l-.2-.2-.2-.33v-.47s.27-.33 0-.47c-.13-.06-.2 0-.23.04-.03.03-.03.03-.03-.17v-.4s.33-.27.46-.47c.09-.12.04.02.04.02l.1-.21c.2-.47.33-1.07.33-1.07l.47-.4v-.87s-.07-.2 0-.46c.06-.27 0-.67 0-.67l.4-.26c.2-.14.73-.6.73-.6s-.33-.2 0-.4.53-.4.46-.67c-.04-.17 0 .04 0 .04l-.06-.3c-.05-.27-.1-.42-.13-.53a1.56 1.56 0 0 1-.07-.54c0-.29-.1-.25-.12-.27l.12-.2c.27-.4.66-1.16.66-1.16s-.46-.5-.66-.57c-.1-.03-.2-.08-.32-.14a5.23 5.23 0 0 0-.41-.2l-1.27-.46s-.46-.2-.66-.26c-.2-.07-.87-1-.87-1s-.07 0-.67-.2c-.6-.2-.73-.27-.93-.47-.2-.2-.73-.66-.73-.66l-.13-.34s-.2.2-.8.14a2.4 2.4 0 0 1-1.13-.54s-.34 0-.6.14c-.27.13-.73.46-.73.46l-.47.14-.87-.07-.6-.33-.33-.74s-.06-.33-.26-.46-.74-.53-.74-.53l.27-.8s-.27-.34-.53-.2c-.27.13-.67.6-.67.6s-.2.13-.4.06c-.2-.06-.53-.2-.86-.53-.34-.33-.4-.67-.4-.86 0-.2.4-1.07.4-1.07l1.13-.8h.66l.74-.33.73.93.6.73s.73-.46.56-.66c-.16-.2-.43-.6-.43-.6s.33-.54.43-.74c.05-.1.1-.16.19-.25.08-.09.18-.2.31-.41l.53-.8c.14-.2.67-1.13.67-1.13l.53-.4.47-.6.33-.33h.53l.94-.47h.6l-.54-.66-.33-.4a3.35 3.35 0 0 1 1.27-.54s.93-.53.86-.33c-.06.2-.8 1.13-.8 1.13l.53.4s.6.13.74-.06c.13-.2.2-.67.2-.67l-.2-.84v-.96c0-.33-.14-1.2-.34-1.06-.2.13-.4-.6-.4-.6v-.94l-.73.67s-.53-.07-.46-.27c.06-.2.4-.4.4-.4l-.74-.6s-.8-.53-.93-.33-.33.73-.33.73l-.34.74v.46l-.26.67-.8.8-.4.8s-.13-1-.13-1.2c0-.2-.87-1-.87-1l-.2-.8s.27-.53.27-.73c0-.2.33-.6.6-.87.26-.26.93-.8 1.13-.93l.66-.4-.13 1.13.87-.13-.14-.6.74-.4.4-1.06s.4-.94.6-.8c.2.13.66.73.66.73l-.73 1.46h-.6l-.2.6s.33.07.6.27c.27.2.73.73.73.73l.8-.6v-.53h.6l.4-.87-.13-.6s0-.2.06-.46l.07-.27-.27-.48V6.46l-.4-.73h-1.26l-2.07-1h-.53l-.91-.46c1.58-.98 3.29-1.76 5.1-2.32-.21.15-.33.28-.33.4 0 .46.15 1.09.32 1.38.17.3.48.56.68.6l.27-.07c.27-.06.8-.73.93-.93a6.6 6.6 0 0 1 1.33-.87l.12-.06.37-.01h.04l.15.04c-.14-.01-.36.18-.5.43l-.44.34-.54.4c-.14.38-.14.92 0 1.2l.2.33.2.33c.04.18.07.4.07.47v.2l-.04.5-.03.5c0 .1-.1.41-.2.73-.1.31-.2.63-.2.73 0 .2-.11.74-.26 1.4l-.4.26c-.28.19-.2.34-.1.53.03.08.08.17.1.27.02.14-.05.2-.11.27-.1.09-.17.16.1.4.28.23.32.2.35.2.03 0 .04.03.12.2.12.24.12.24.19.17a.65.65 0 0 1 .28-.17l.37-.13a76.27 76.27 0 0 0 1.1-1.35l.01-.01.02-.01a3.56 3.56 0 0 0-.02 0v.01h.01l.02-.02.07-.06a1.24 1.24 0 0 1 .04-.03l.02-.01a24.44 24.44 0 0 1-.11.08l-.02.02ZM.58 23.84l-.07-.06v.12a.67.67 0 0 1 .07-.06Zm-.06.56.06.04c.23.13.23.15.23.16l.23.1.47.2s-.07-.13 0-.4c.03-.13.12-.08.16-.05h.02l-.12-.21c-.13-.23-.16-.22-.18-.21-.02 0-.03-.03-.08-.26l-.13-.53s-.14-.33.06-.33.45.73.45.73.35.8.55.93l.2.13s.27.27.33.54c.03.1-.02.19-.07.25-.07.1-.12.16.07.28.17.1.14.05.12.02l.22.18c.3.26.52.32.69.37.1.03.17.05.24.1.08.05.15-.01.2-.08.08-.08.15-.15.26.07.1.2 0 .2-.05.2h-.02a24.74 24.74 0 0 0 1.2.8s.07-.4.47 0c.4.4.87.47.87.47s.06.2.4.47c.16.13.16.1.16.08.01-.01.04.02.17.18l.33.4.6.4h.27l.2.33.53.67v.47s-.33-.47-.33 0c0 .23.02.24.02.25.01.01 0 .03-.02.21l-.07.4.4.53v.94s.4.46.6.6c.1.06.02-.02-.02-.06l.22.19.53.46.74.67v.27s.46-.34.66 0c.2.33.47.66.47.66v.27s.26-.53.4 0c.13.53 0 .8 0 .8s.4.33.46.53c.03.09 0 .18-.01.27-.03.1-.06.22.01.33.14.2.34 1.06.34 1.06l.53 1.07s-.13.4 0 .6c.13.2.33.6.33.6s-.46.4 0 .86c.23.24.28.24.3.24h.02c.02 0 .03.02.15.23.26.47.46.93.46.93l.87 1 .57.42A22.57 22.57 0 0 1 .52 24.4Z" fill="rgba(194,20,45)"></path>
</svg>