<svg width="81" height="43" viewBox="0 0 81 43" fill="none" xmlns="http://www.w3.org/2000/svg">
<g id="RED_Logo">
<g id="Group 3">
<mask id="mask0" mask-type="alpha" maskUnits="userSpaceOnUse" x="54" y="0" width="27" height="43">
<path id="Clip 2" fill-rule="evenodd" clip-rule="evenodd" d="M54 0H81V43H54V0Z" fill="white"/>
</mask>
<g mask="url(#mask0)">
<path id="Fill 1" fill-rule="evenodd" clip-rule="evenodd" d="M76.7058 0.024755C76.3535 0.0856192 76.1375 0.297742 76.0758 0.647675C76.0242 0.93572 75.9905 1.23044 75.9905 1.52282C75.9837 6.26667 75.9803 11.0098 75.9775 15.7516C75.9775 15.8135 75.9779 15.8747 75.9779 15.936C75.9779 15.9731 75.9779 16.0096 75.9775 16.0464C75.9755 16.0869 75.9693 16.1254 75.9611 16.1923C75.8309 16.0682 75.7224 15.9731 75.6255 15.8698C74.3327 14.5115 72.859 13.4275 71.127 12.7424C69.6466 12.1567 68.1416 11.8867 66.6178 11.8867C65.9584 11.8867 65.2946 11.9372 64.6289 12.0349C64.3604 12.0744 64.0909 12.1212 63.8219 12.1754C61.6787 12.6073 59.83 13.6276 58.3024 15.2348C56.5559 17.0724 55.4081 19.2667 54.7313 21.7293C54.2126 23.6241 54.0014 25.5525 54 27.5021C54 27.9749 54.0121 28.4496 54.0357 28.925C54.1061 30.3558 54.3013 31.7653 54.6561 33.1519C55.2775 35.5737 56.3756 37.7275 58.0864 39.5257C59.9968 41.5386 62.3449 42.6175 65.0458 42.9016C65.6855 42.9685 66.3247 43.0029 66.963 43.0029C68.0978 43.0029 69.2287 42.8932 70.349 42.6587C74.9603 41.6925 78.1028 38.8746 79.8908 34.4469C80.7595 32.2985 80.9831 30.0002 80.9899 27.6952C80.9904 27.4931 80.9904 27.2917 80.9913 27.0897C80.9913 26.9415 80.9918 26.7926 80.9923 26.644C80.9923 26.5989 80.9923 26.5551 80.9928 26.5099C80.9947 25.2798 80.9966 24.0494 80.9976 22.8189C80.9976 22.7359 80.9981 22.653 80.9981 22.5703C80.9981 22.4626 80.9986 22.3552 80.9986 22.2475C80.9986 22.1053 80.999 21.9621 80.999 21.8199C80.999 21.7473 80.999 21.6754 80.999 21.6028C80.9995 21.1301 80.9995 20.6571 80.9995 20.1844C80.9995 20.1673 80.9995 20.1496 80.9995 20.1325C81 19.897 81 19.6615 81 19.426C81 19.4169 81 19.4079 81 19.3985C81 19.17 81 18.9419 81 18.7134V15.1692C81 15.0047 81 14.8403 81 14.6758C80.9995 10.9797 80.9976 7.28402 80.9995 3.58767C80.9995 3.14905 80.8872 2.76301 80.5575 2.48062C79.8638 1.8845 79.16 1.29803 78.4509 0.720917C78.2132 0.525898 77.9491 0.361287 77.6888 0.196383C77.6849 0.193703 77.6815 0.191705 77.6777 0.189366C77.5952 0.138833 77.5109 0.0990201 77.4241 0.0695869C77.2838 0.0217337 77.1392 0 76.9903 0C76.8972 0 76.8023 0.00833289 76.7058 0.024755M64.9263 37.4783C63.1085 36.9086 61.8166 35.6891 60.8924 34.016C60.1949 32.7498 59.8088 31.3799 59.6261 29.9437C59.533 29.21 59.4873 28.4753 59.4863 27.7407C59.4858 27.0927 59.5196 26.4437 59.5861 25.7953C59.7919 23.8122 60.3255 21.9381 61.4073 20.2626C62.5594 18.4748 64.1863 17.4669 66.2558 17.219C66.3493 17.2079 66.4428 17.1982 66.5359 17.1895C66.8309 17.1628 67.1235 17.1487 67.4152 17.1487C68.4506 17.1487 69.4653 17.3233 70.4502 17.7094C70.4507 17.7094 70.4512 17.7094 70.4512 17.7097C70.4598 17.7131 70.468 17.7164 70.4767 17.7198C70.4945 17.7268 70.5133 17.7342 70.5317 17.7415C70.5452 17.7469 70.5587 17.7526 70.5717 17.7579C70.5721 17.7582 70.5726 17.7586 70.5736 17.7589C70.5895 17.7649 70.6054 17.7716 70.6213 17.7783C72.3326 18.4916 73.5392 19.7692 74.3775 21.4372C74.9656 22.6061 75.2992 23.859 75.4477 25.1617C75.5344 25.9164 75.5696 26.6789 75.627 27.4396C75.5947 29.3378 75.3223 31.1828 74.5525 32.9188C73.8685 34.4577 72.913 35.7731 71.5049 36.6958C70.5514 37.318 69.4972 37.6399 68.3788 37.7623C68.0091 37.8034 67.6412 37.8259 67.2739 37.8259C66.4824 37.8259 65.6986 37.7215 64.9263 37.4783" fill="#BC1F3E"/>
</g>
</g>
<g id="Group 6">
<mask id="mask1" mask-type="alpha" maskUnits="userSpaceOnUse" x="54" y="0" width="27" height="43">
<path id="Clip 5" fill-rule="evenodd" clip-rule="evenodd" d="M76.9903 0C77.1392 0 77.2838 0.0217337 77.4241 0.0695868C77.5109 0.0990199 77.5952 0.138833 77.6777 0.189366C77.6815 0.191705 77.6849 0.193703 77.6888 0.196383C77.9491 0.361286 78.2132 0.525897 78.4509 0.720916C79.16 1.29803 79.8638 1.8845 80.5575 2.48061C80.8872 2.76301 80.9995 3.14905 80.9995 3.58767C80.9976 7.28401 80.9995 10.9797 81 14.6758L81 14.3359L81 19.5158C81 19.6036 81 19.6914 80.9999 19.7792L80.9995 20.1325V20.1325V20.1843C80.9995 20.6571 80.9995 21.1301 80.999 21.6028V21.6028V21.8199V21.8199L80.9986 22.2475C80.9986 22.3552 80.9981 22.4626 80.9981 22.5703C80.9981 22.653 80.9976 22.7359 80.9976 22.8189C80.9966 24.0493 80.9947 25.2798 80.9928 26.5099C80.9923 26.555 80.9923 26.5988 80.9923 26.644C80.9918 26.7926 80.9913 26.9415 80.9913 27.0896C80.9904 27.2917 80.9904 27.4931 80.9899 27.6951C80.9831 30.0002 80.7595 32.2985 79.8908 34.4469C78.1028 38.8746 74.9603 41.6925 70.349 42.6586C69.333 42.8713 68.3082 42.9813 67.2798 43L66.6438 43C66.1117 42.9905 65.5789 42.9573 65.0458 42.9015C62.3449 42.6175 59.9968 41.5386 58.0864 39.5256C56.3756 37.7274 55.2775 35.5736 54.6561 33.1519C54.3013 31.7652 54.1061 30.3558 54.0357 28.925C54.0121 28.4496 54 27.9748 54 27.5021C54.0014 25.5525 54.2126 23.6241 54.7313 21.7293C55.4081 19.2667 56.5559 17.0724 58.3024 15.2348C59.83 13.6276 61.6787 12.6073 63.8219 12.1754C64.0909 12.1212 64.3604 12.0743 64.6289 12.0349C65.2946 11.9372 65.9584 11.8867 66.6178 11.8867C68.1416 11.8867 69.6466 12.1566 71.127 12.7424C72.859 13.4275 74.3327 14.5114 75.6255 15.8697C75.7224 15.9731 75.8309 16.0681 75.9611 16.1922C75.9693 16.1253 75.9755 16.0868 75.9775 16.0463C75.9779 16.0096 75.9779 15.9731 75.9779 15.936C75.9779 15.8747 75.9775 15.8135 75.9775 15.7516C75.9803 11.0098 75.9837 6.26666 75.9905 1.52282C75.9905 1.23044 76.0242 0.935719 76.0758 0.647674C76.1375 0.297742 76.3535 0.0856191 76.7058 0.024755C76.8023 0.00833288 76.8972 0 76.9903 0ZM67.4152 17.1487C67.1235 17.1487 66.8309 17.1628 66.5359 17.1895C66.4428 17.1982 66.3493 17.2079 66.2558 17.2189C64.1863 17.4668 62.5594 18.4748 61.4073 20.2626C60.3255 21.938 59.7919 23.8121 59.5861 25.7953C59.5196 26.4436 59.4858 27.0927 59.4863 27.7406C59.4873 28.4753 59.533 29.21 59.6261 29.9436C59.8088 31.3799 60.1949 32.7498 60.8924 34.016C61.8166 35.6891 63.1085 36.9085 64.9263 37.4782C65.6986 37.7214 66.4824 37.8258 67.2739 37.8258C67.6412 37.8258 68.0091 37.8034 68.3788 37.7622C69.4972 37.6398 70.5514 37.318 71.5049 36.6957C72.913 35.773 73.8685 34.4576 74.5525 32.9187C75.3223 31.1828 75.5947 29.3378 75.627 27.4396C75.5696 26.6789 75.5344 25.9164 75.4477 25.1616C75.2992 23.859 74.9656 22.6061 74.3775 21.4372C73.5392 19.7691 72.3326 18.4915 70.6213 17.7783C70.6054 17.7716 70.5895 17.7649 70.5736 17.7589C70.5726 17.7586 70.5721 17.7582 70.5717 17.7579C70.5587 17.7525 70.5452 17.7468 70.5317 17.7415C70.5133 17.7342 70.4945 17.7268 70.4767 17.7197C70.468 17.7164 70.4598 17.7131 70.4512 17.7097C70.4512 17.7094 70.4507 17.7094 70.4502 17.7094C69.4653 17.3233 68.4506 17.1487 67.4152 17.1487Z" fill="white"/>
</mask>
<g mask="url(#mask1)">
<path id="Fill 4" fill-rule="evenodd" clip-rule="evenodd" d="M54 42.9999H81V0H54V42.9999Z" fill="white"/>
</g>
</g>
<path id="Fill 7" fill-rule="evenodd" clip-rule="evenodd" d="M37.7007 12.0053C36.3635 12.037 35.0442 12.1902 33.7474 12.5335C31.7763 13.0552 30.0071 13.972 28.5094 15.3995C26.192 17.6113 24.8727 20.3719 24.3152 23.5448C24.091 24.8232 24.0003 26.1109 24 27.4046C24 27.7028 24.0046 28.0018 24.0135 28.3007C24.0777 30.4518 24.3821 32.5558 25.1641 34.5638C26.5533 38.1243 28.9342 40.6898 32.4763 42.0056C33.5651 42.4099 34.6697 42.6878 35.7872 42.8452C36.5262 42.949 37.2709 43 38.0199 43C38.7084 43 39.4008 42.9573 40.0965 42.872C40.2364 42.8549 40.3764 42.8359 40.5167 42.8155C41.6358 42.6504 42.7365 42.3785 43.7736 41.9018C44.0853 41.7587 44.3876 41.5605 44.6423 41.3293C44.8223 41.1672 44.9097 40.9971 44.9086 40.8279C44.908 40.6478 44.8071 40.4687 44.6122 40.3008C44.2953 40.0263 43.9665 39.7671 43.6317 39.5138C42.9968 39.0331 42.3627 38.5521 41.7106 38.0957C41.5353 37.9716 41.3057 37.8955 41.0926 37.8771C41.0737 37.8758 41.0549 37.8745 41.036 37.8742C41.0208 37.8735 41.0059 37.8732 40.9911 37.8732C40.9722 37.8732 40.954 37.8735 40.9352 37.8745C40.7532 37.8818 40.5673 37.9232 40.3863 37.9599C39.2337 38.1924 38.0788 38.2685 36.9213 38.1107C36.7505 38.0877 36.5799 38.059 36.4088 38.0253C36.3985 38.0233 36.388 38.0213 36.3777 38.0189C33.5806 37.4588 31.6211 35.8262 30.4957 33.1493C30.0183 32.0157 29.8334 30.8094 29.7748 29.5814C29.7682 29.4433 29.7662 29.3055 29.7666 29.1664C29.7669 28.9339 29.7728 28.6976 29.7728 28.4504H30.0649C36.4806 28.4504 42.8992 28.4478 49.3144 28.4545C49.857 28.4552 50.2622 28.2513 50.5065 27.8297C50.5504 27.7546 50.5885 27.6722 50.6222 27.5834C50.7832 27.1464 50.9017 26.6757 50.9499 26.2106C50.9841 25.8623 51 25.515 51 25.1688C51.0005 24.1296 50.8559 23.0994 50.6063 22.0829C50.0444 19.7974 48.9134 17.8298 47.4067 16.0767C46.0728 14.5278 44.469 13.3858 42.5585 12.7139C42.0404 12.5321 41.5171 12.3887 40.9891 12.2796C40.9887 12.2796 40.988 12.2793 40.9874 12.2793C40.9834 12.2782 40.9788 12.2776 40.9748 12.2765C40.3698 12.1525 39.7587 12.0738 39.1421 12.033C39.1312 12.0324 39.1203 12.0317 39.109 12.0311C39.1083 12.0307 39.1083 12.0307 39.1077 12.0307C38.7795 12.01 38.4497 12 38.1185 12C37.9799 12 37.84 12.002 37.7007 12.0053M29.9277 23.445C30.3174 22.0682 30.8563 20.7629 31.6959 19.6052C33.0867 17.685 34.9644 16.7202 37.2789 16.6191C37.3639 16.6154 37.4489 16.6124 37.5339 16.6108C37.6084 16.6091 37.6825 16.6081 37.7569 16.6081C38.7778 16.6081 39.7789 16.7612 40.7396 17.1606C42.358 17.8314 43.4573 19.0461 44.1894 20.6394C44.6255 21.5932 44.9001 22.598 45.0767 23.6329C45.084 23.6732 45.084 23.714 45.089 23.7727H29.841C29.8728 23.6545 29.8989 23.5495 29.9277 23.445" fill="#BC1F3E"/>
<g id="Group 10">
<mask id="mask2" mask-type="alpha" maskUnits="userSpaceOnUse" x="24" y="12" width="27" height="31">
<path id="Clip 9" fill-rule="evenodd" clip-rule="evenodd" d="M37.7007 12.0053C36.3635 12.037 35.0442 12.1902 33.7474 12.5335C31.7763 13.0552 30.0071 13.972 28.5094 15.3995C26.192 17.6113 24.8727 20.3719 24.3152 23.5448C24.091 24.8232 24.0003 26.1109 24 27.4046C24 27.7028 24.0046 28.0018 24.0135 28.3007C24.0777 30.4518 24.3821 32.5558 25.1641 34.5638C26.5533 38.1243 28.9342 40.6898 32.4763 42.0056C33.5651 42.4099 34.6697 42.6878 35.7872 42.8452C36.5262 42.949 37.2709 43 38.0199 43C38.7084 43 39.4008 42.9573 40.0965 42.872C40.2364 42.8549 40.3764 42.8359 40.5167 42.8155C41.6358 42.6504 42.7365 42.3785 43.7736 41.9018C44.0853 41.7587 44.3876 41.5605 44.6423 41.3293C44.8223 41.1672 44.9097 40.9971 44.9086 40.8279C44.908 40.6478 44.8071 40.4687 44.6122 40.3008C44.2953 40.0263 43.9665 39.7671 43.6317 39.5138C42.9968 39.0331 42.3627 38.5521 41.7106 38.0957C41.5353 37.9716 41.3057 37.8955 41.0926 37.8771C41.0737 37.8758 41.0549 37.8745 41.036 37.8742C41.0208 37.8735 41.0059 37.8732 40.9911 37.8732C40.9722 37.8732 40.954 37.8735 40.9352 37.8745C40.7532 37.8818 40.5673 37.9232 40.3863 37.9599C39.2337 38.1924 38.0788 38.2685 36.9213 38.1107C36.7505 38.0877 36.5799 38.059 36.4088 38.0253C36.3985 38.0233 36.388 38.0213 36.3777 38.0189C33.5806 37.4588 31.6211 35.8262 30.4957 33.1493C30.0183 32.0157 29.8334 30.8094 29.7748 29.5814C29.7682 29.4433 29.7662 29.3055 29.7666 29.1664C29.7669 28.9339 29.7728 28.6976 29.7728 28.4504H30.0649C36.4806 28.4504 42.8992 28.4478 49.3144 28.4545C49.857 28.4552 50.2622 28.2513 50.5065 27.8297C50.5504 27.7546 50.5885 27.6722 50.6222 27.5834C50.7832 27.1464 50.9017 26.6757 50.9499 26.2106C50.9841 25.8623 51 25.515 51 25.1688C51.0005 24.1296 50.8559 23.0994 50.6063 22.0829C50.0444 19.7974 48.9134 17.8298 47.4067 16.0767C46.0728 14.5278 44.469 13.3858 42.5585 12.7139C42.0404 12.5321 41.5171 12.3887 40.9891 12.2796C40.9887 12.2796 40.988 12.2793 40.9874 12.2793C40.9834 12.2782 40.9788 12.2776 40.9748 12.2765C40.3698 12.1525 39.7587 12.0738 39.1421 12.033C39.1312 12.0324 39.1203 12.0317 39.109 12.0311C39.1083 12.0307 39.1083 12.0307 39.1077 12.0307C38.7795 12.01 38.4497 12 38.1185 12C37.9799 12 37.84 12.002 37.7007 12.0053V12.0053ZM29.9277 23.445C30.3174 22.0682 30.8563 20.7629 31.6959 19.6052C33.0867 17.685 34.9644 16.7202 37.2789 16.6191C37.3639 16.6154 37.4489 16.6124 37.5339 16.6108C37.6084 16.6091 37.6825 16.6081 37.7569 16.6081C38.7778 16.6081 39.7789 16.7612 40.7396 17.1606C42.358 17.8314 43.4573 19.0461 44.1894 20.6394C44.6255 21.5932 44.9001 22.598 45.0767 23.6329C45.084 23.6732 45.084 23.714 45.089 23.7727H29.841C29.8728 23.6545 29.8989 23.5495 29.9277 23.445V23.445Z" fill="white"/>
</mask>
<g mask="url(#mask2)">
<path id="Fill 8" fill-rule="evenodd" clip-rule="evenodd" d="M24 43H51.0005V12H24V43Z" fill="white"/>
</g>
</g>
<g id="Group 13">
<mask id="mask3" mask-type="alpha" maskUnits="userSpaceOnUse" x="0" y="12" width="23" height="31">
<path id="Clip 12" fill-rule="evenodd" clip-rule="evenodd" d="M0 12H23V43H0V12Z" fill="white"/>
</mask>
<g mask="url(#mask3)">
<path id="Fill 11" fill-rule="evenodd" clip-rule="evenodd" d="M9.52867 12.5373C5.29429 13.6939 2.36599 16.3091 0.891734 20.5011C0.232917 22.3749 0.0185233 24.3257 0.00622247 26.3002C-0.000948881 27.2202 -0.00299072 28.1409 -0.00299072 29.0613C-0.00299072 30.4064 0.00179017 31.7512 0.00179017 33.0951V40.9471C0.00179017 41.102 -0.000600274 41.2578 -0.000600274 41.4136C-0.000251667 41.4847 9.69403e-05 41.5554 0.00179017 41.6265C0.0175273 42.4548 0.4124 42.9186 1.23193 42.9727C1.48118 42.9894 1.73113 42.9967 1.98138 42.999C2.06101 42.9997 2.14069 43 2.22067 43C2.58651 43 2.9527 42.9934 3.31854 42.9934C3.62008 42.992 3.92536 42.9964 4.22457 42.962C4.85873 42.8912 5.25366 42.4648 5.30082 41.8261C5.31003 41.6712 5.31177 41.5154 5.31177 41.3595C5.3169 36.5139 5.31551 31.6681 5.33125 26.8221C5.33573 25.4305 5.49569 24.0557 5.92512 22.7249C6.37642 21.3344 7.0325 20.0569 8.09241 19.0361C8.74506 18.4074 9.43943 17.9193 10.1715 17.5615C10.1725 17.5608 10.1741 17.5599 10.1755 17.5592C10.1759 17.5592 10.1762 17.5588 10.1766 17.5588C11.753 16.789 13.5025 16.6211 15.3805 16.9502C16.769 17.1944 17.5813 18.0901 17.7902 19.463C17.8271 19.7082 17.8381 19.9558 17.8552 20.2017C17.9088 20.99 18.3495 21.4942 19.1263 21.5576C19.7913 21.612 20.4604 21.5973 21.1281 21.6013C21.1356 21.6013 21.1428 21.6013 21.1503 21.6013C21.9938 21.6013 22.5887 21.1625 22.8585 20.3526C22.9467 20.0893 22.9867 19.8207 23 19.5484V19.0475C22.9993 19.0278 22.9986 19.0081 22.9976 18.9881C22.9228 17.3239 22.3114 15.8933 21.1213 14.7344C19.4696 13.125 17.4599 12.2837 15.1945 12.0748C14.9877 12.0558 14.7812 12.0401 14.5747 12.028C14.2509 12.0094 13.9275 12 13.6047 12C12.2307 12 10.8675 12.1715 9.52867 12.5373" fill="#BC1F3E"/>
</g>
</g>
<g id="Group 16">
<mask id="mask4" mask-type="alpha" maskUnits="userSpaceOnUse" x="0" y="12" width="23" height="31">
<path id="Clip 15" fill-rule="evenodd" clip-rule="evenodd" d="M13.6048 12C13.9275 12 14.2509 12.0094 14.5747 12.028C14.7812 12.0401 14.9877 12.0558 15.1946 12.0748C17.4599 12.2837 19.4696 13.125 21.1213 14.7344C22.3114 15.8933 22.9228 17.3239 22.9976 18.9881C22.9986 19.0081 22.9993 19.0278 23 19.0475V19.0475V19.5484C22.9867 19.8207 22.9467 20.0893 22.8585 20.3526C22.5887 21.1625 21.9938 21.6013 21.1503 21.6013V21.6013H21.1281C21.028 21.6007 20.9278 21.6005 20.8276 21.6005L20.6272 21.6005C20.1261 21.6004 19.6251 21.5984 19.1263 21.5576C18.3495 21.4942 17.9089 20.99 17.8552 20.2017C17.8381 19.9558 17.8271 19.7082 17.7902 19.463C17.5813 18.0901 16.769 17.1944 15.3806 16.9502C13.5025 16.6211 11.7531 16.789 10.1766 17.5588C10.1763 17.5588 10.1759 17.5592 10.1756 17.5592C10.1742 17.5599 10.1725 17.5608 10.1715 17.5615C9.43946 17.9193 8.74508 18.4074 8.09244 19.0361C7.03253 20.0569 6.37645 21.3344 5.92516 22.7249C5.49572 24.0557 5.33576 25.4305 5.33128 26.8221C5.31554 31.6681 5.31694 36.5139 5.31181 41.3595C5.31181 41.5154 5.31007 41.6712 5.30085 41.8261C5.25369 42.4648 4.85877 42.8912 4.22461 42.962C3.9254 42.9964 3.62012 42.992 3.31858 42.9934C2.95274 42.9934 2.58655 43 2.22072 43C2.14074 43 2.06105 42.9997 1.98142 42.999C1.73117 42.9967 1.48122 42.9894 1.23197 42.9727C0.412445 42.9186 0.0175734 42.4548 0.00183633 41.6265C0.000868827 41.5859 0.000340333 41.5454 0 41.5049L6.56331e-05 41.2578C0.000773913 41.154 0.00183633 41.0503 0.00183633 40.9471V40.9471V33.0951C0.00183633 32.5453 0.00103624 31.9954 9.06741e-05 31.4454L5.00265e-05 27.3732C0.00146884 27.0155 0.00348126 26.6578 0.00626861 26.3002C0.0185694 24.3257 0.232962 22.3749 0.891779 20.5011C2.36604 16.3091 5.29433 13.6939 9.5287 12.5373C10.8675 12.1715 12.2307 12 13.6048 12Z" fill="white"/>
</mask>
<g mask="url(#mask4)">
<path id="Fill 14" fill-rule="evenodd" clip-rule="evenodd" d="M3.05176e-05 43H23V12H3.05176e-05V43Z" fill="white"/>
</g>
</g>
</g>
</svg>
