<svg width="42" height="51" viewBox="0 0 42 51" fill="none" xmlns='http://www.w3.org/2000/svg'>
<path fill-rule="evenodd" clip-rule="evenodd" d="M25.1851 49.6634L25.1143 48.5854H26.0974L26.7944 49.2924L25.1851 49.6634ZM24.4057 50.4609L23.2873 49.3737L23.6348 46.4145L24.5526 46.0152L24.1091 47.2897C24.0947 47.331 24.1003 47.3767 24.1243 47.413L24.8339 48.4928L24.9192 49.7912L24.4057 50.4609ZM23.2572 47.2279L23.2654 47.2127L23.0398 49.1331L22.4085 48.5193L23.2572 47.2279ZM21.5038 46.5164L20.4803 43.0619L21.5584 42.5571C21.5782 42.5477 21.5957 42.5338 21.6091 42.5163L22.0029 42.0027V45.2999L22.0036 45.3032L22.0071 45.3207C22.0092 45.3347 22.0119 45.348 22.0179 45.3602L22.0194 45.3661L22.0291 45.3772C22.0362 45.3877 22.0438 45.3971 22.0535 45.4052C22.0543 45.406 22.0553 45.4067 22.0562 45.4075C22.058 45.4089 22.0598 45.4102 22.0617 45.4115C22.0649 45.4137 22.0682 45.4157 22.0716 45.4177C22.0818 45.4238 22.0924 45.4282 22.1041 45.4315L22.1165 45.4368L24.307 45.8199L23.4696 46.1843L21.5038 46.5164ZM18.8132 45.2462L18.9797 42.5452L20.2022 43.0877L21.2317 46.5623L20.2708 46.7246L18.8132 45.2462ZM15.32 43.0471L18.7081 42.5027L18.5504 45.0614L15.4663 43.1498L15.32 43.0471ZM12.22 40.0438C12.2145 40.0349 12.208 40.0265 12.2007 40.0192L10.9635 38.7642V34.7959H17.1228L14.8823 42.7397L13.1174 41.5003L12.22 40.0438ZM9.13883 31.5642V28.4102L10.1953 26.9812L16.4971 29.8552L10.8626 34.4496L9.13883 31.5642ZM13.1769 22.8015L16.4648 29.5361L10.3636 26.7536L10.4815 26.5941L13.1769 22.8015ZM10.9616 19.5202L10.7882 15.1239L19.5308 17.3244L13.2202 22.34L10.9616 19.5202ZM7.7452 12.3085L4.73445 11.8458C4.7037 11.8413 4.6722 11.8471 4.64521 11.863L2.23595 13.2821L4.60879 8.81489L8.66675 13.0705L7.81292 12.3397C7.79365 12.3232 7.77014 12.3124 7.7452 12.3085ZM0.73826 8.32715L0.961284 7.84633L4.37224 8.67495L1.85645 13.4112L0.0282593 11.3881L0.73826 8.32715ZM2.1653 5.2509L5.43912 4.3143L4.47569 8.41455L1.08038 7.58974L2.1653 5.2509ZM4.45348 0.460938H9.63462L5.68708 3.88131L4.45348 0.460938ZM13.6234 3.69639L17.8515 4.71409L12.1799 4.69496L5.95637 4.01314L10.0044 0.505643L13.5648 3.66575C13.5815 3.68066 13.6017 3.69112 13.6234 3.69639ZM35.167 9.10461L38.2002 12.1365L38.2033 12.1423L36.0893 14.942L34.4901 16.384L27.2347 17.0891L30.3423 13.078L31.8205 11.2633L33.6301 13.0879C33.6622 13.1204 33.708 13.1346 33.7524 13.1258C33.797 13.117 33.8342 13.0866 33.8523 13.0445L34.6734 11.1126C34.6933 11.0656 34.6862 11.0115 34.655 10.9714L33.8476 9.93649L35.167 9.10461ZM32.6744 8.87505L34.0941 5.99496L35.065 7.88258C35.0788 7.90962 35.101 7.93124 35.1282 7.94406L38.0239 9.32107L39.2953 10.6961L38.3722 11.9187L35.2823 8.83007L35.2749 8.82515C35.2664 8.81773 35.2571 8.81184 35.2471 8.80671L35.2316 8.79895C35.2203 8.79486 35.2083 8.79313 35.196 8.79223L35.1836 8.79049L35.1817 8.79022L32.6744 8.87505ZM41.0143 13.6026H39.2827L38.5277 12.1693L39.4775 10.9115L40.5392 12.237L41.0143 13.6026ZM39.481 16.2921L36.4062 14.9789L38.345 12.4113L39.0694 13.7867L39.481 16.2921ZM34.4588 28.3176L32.7144 23.7643L36.5092 24.5892V28.3176H34.4588ZM33.2607 30.4773L31.2125 31.343L28.7052 28.2955L32.4503 23.8415L34.2161 28.4506L33.2607 30.4773ZM26.8285 36.0443C26.8055 36.0698 26.7927 36.1032 26.7927 36.1378V38.2055L25.3786 39.5236V36.323C25.3786 36.284 25.3625 36.2469 25.3342 36.2206C25.306 36.1944 25.2681 36.1814 25.2299 36.1847L23.4147 36.3447L28.3753 28.7754L28.2084 34.509L26.8285 36.0443ZM17.1508 34.5183H11.2153L16.6492 30.0874L17.1508 34.5183ZM20.4277 23.6827L16.7715 29.5386L13.4361 22.7067L20.4277 23.6827ZM20.4981 23.4122L13.5375 22.4405L19.7318 17.5175L20.4981 23.4122ZM18.9233 5.20966L19.6873 17.0778L10.8906 14.8636L18.9233 5.20966ZM12.2898 4.97303L18.744 4.99473L10.8531 14.4782L12.2898 4.97303ZM19.9468 16.8478L19.1977 5.21119L24.3343 10.3347L19.9468 16.8478ZM30.0633 12.7557L24.8583 10.3262L29.4204 8.47506L30.0633 12.7557ZM30.3261 12.662L29.739 8.75279L31.6328 11.0579L30.3261 12.662ZM28.4968 28.1155L21.1575 23.7134H32.1983L28.4968 28.1155ZM30.0221 13.042L24.7487 10.5806L26.9757 16.974L30.0221 13.042ZM27.2118 17.3703L32.4332 23.2962L34.3591 16.6756L27.2118 17.3703ZM30.9893 31.505L28.6523 28.6645L28.4911 34.2026L30.9893 31.505ZM16.8984 29.8543L17.3656 33.9815L20.2272 24.5227L16.8984 29.8543ZM24.4726 10.6214L20.0953 17.1194H26.7361L24.4726 10.6214ZM20.7568 23.2787L26.5975 17.397H19.9921L20.7568 23.2787ZM20.9893 23.4358H32.189L26.9236 17.4598L20.9893 23.4358ZM28.2517 28.2911L20.737 23.7838L17.5352 34.3671L28.2517 28.2911ZM21.6912 37.001L23.0515 36.3972L28.0987 28.6959L17.5842 34.6575L21.6912 37.001ZM34.3896 11.0787L33.6137 10.0841L32.0297 11.0828L33.6804 12.7473L34.3896 11.0787ZM10.5508 14.6469L11.9976 5.07444L4.80667 8.62304L10.5508 14.6469ZM4.77722 8.32874L11.6848 4.92001L5.73143 4.26772L4.77722 8.32874ZM19.2691 39.8096C19.2741 39.7872 19.2843 39.7664 19.2991 39.7491L21.4707 37.1937L17.3883 34.8642L15.152 42.793L18.7419 42.2161L19.2691 39.8096ZM22.2766 41.7654V44.6292L23.4059 41.9801L22.2766 41.7654ZM38.9748 21.0774L38.621 19.1041L34.6294 16.7275L32.6679 23.4701L36.6572 24.3373L40.1058 24.1531C40.1522 24.1507 40.1965 24.1721 40.2237 24.2103C40.251 24.2482 40.2574 24.2977 40.2406 24.3416L39.3531 26.6829L40.3197 28.2354L41.0283 27.5166L40.3673 26.5945C40.352 26.5733 40.3431 26.5483 40.3414 26.5221L40.2501 25.1339C40.2478 25.0988 40.2587 25.064 40.2807 25.0368L41.0176 24.1233L39.7496 23.0085C39.7332 22.994 39.7203 22.9757 39.7122 22.9552L38.9823 21.1043C38.979 21.0956 38.9764 21.0867 38.9748 21.0774Z" fill="rgba(194,20,45)"></path>
</svg>