<?xml version="1.0" encoding="UTF-8"?>
<svg width="160" height="23" fill="none" version="1.1" viewBox="0 0 160 23" xmlns="http://www.w3.org/2000/svg">
 <g fill="#000">
  <path d="M24.7742 0V4.7823H32.0174V22.7275H37.1438V4.7823H44.3871V0H24.7742Z"/>
  <path d="m101.73 17.872c-0.788 0-1.667-0.3988-1.667-2.3467s0.872-2.2923 1.667-2.2923h9.781v4.638l-9.781 1e-3zm7.532-17.872h-13.065v4.8241h12.718c1.867 0 2.595 0.84393 2.595 3.0231v0.80281h-10.541c-4.0083 0-6.0022 1.9962-6.0022 6.5058v1.0741c0 4.6422 2.0652 6.4976 6.2202 6.4976h15.457v-14.942c0-5.7266-1.901-7.7855-7.382-7.7855z"/>
  <path d="m145.09 17.872c-0.784 0-1.667-0.3988-1.667-2.3467s0.873-2.2923 1.667-2.2923h9.789v4.638l-9.789 1e-3zm7.531-17.872h-13.066v4.8241h12.727c1.859 0 2.595 0.84393 2.595 3.0231v0.80281h-10.544c-4.01 0-6.006 1.9962-6.006 6.5058v1.0741c0 4.6422 2.07 6.4976 6.221 6.4976h15.456v-14.942c0-5.7266-1.89-7.7855-7.386-7.7855"/>
  <path d="M45.4193 0V4.7823H52.6601V22.7275H57.7914V4.7823H65.0322V0H45.4193Z"/>
  <path d="m117.68 0v4.7823h7.244v17.945h5.126v-17.945h7.243v-4.7823h-19.613z"/>
  <path d="m88.582 14.871c0 2.1834-0.7442 3.0243-2.6291 3.0243h-8.4538v-13.055h8.4538c1.886 0 2.6291 0.84602 2.6291 3.0274v7.0036zm5.3531-0.1028v-6.8001c0-5.9622-2.3473-7.9678-7.6346-7.9678h-14.043v22.728h14.286c5.6202 0 7.3914-2.7447 7.3914-7.9596z"/>
  <path d="m17.104 17.173c-0.1113-0.201-7.1022-13.344-7.9578-14.638-0.42249-0.78821-1.068-1.4446-1.8616-1.8928-0.79358-0.44828-1.7026-0.67011-2.6216-0.63969-2.1339 0-4.6633 0.91115-4.6633 5.8587v16.609h5.1567v-13.852c0-0.99353-0.06558-2.4662-0.07599-2.7616-0.01145-0.24713-1e-5 -0.47919 0.12802-0.55051 0.14781-0.08238 0.29668 0.05525 0.39765 0.23908 0.10097 0.18384 6.5796 12.55 7.9547 14.641 0.4235 0.7879 1.069 1.4442 1.8622 1.8935s1.7017 0.6733 2.621 0.646c2.1338 0 4.6654-0.9222 4.6654-5.8677v-16.614h-5.1598v13.855c0 0.9945 0.0655 2.4732 0.078 2.7655 0.0125 0.2472 0 0.4712-0.1291 0.5506-0.1457 0.0793-0.2956-0.0593-0.3945-0.2421z"/>
 </g>
</svg>
