<svg width="23" height="27" viewBox="0 0 23 27" fill="none" xmlns="http://www.w3.org/2000/svg">
<path d="M1.2595 18.4323C3.44631 20.6511 6.30086 21.9475 9.3706 22.1608V25.2H5.46766C4.97522 25.2 4.57596 25.6025 4.57596 26.1C4.57596 26.5975 4.97522 27 5.46766 27H15.057C15.5494 27 15.9487 26.5975 15.9487 26.1C15.9487 25.6025 15.5494 25.2 15.057 25.2H11.154V22.159C17.7614 21.6937 23 16.1334 23 9.34864C23 5.90987 21.6725 2.68247 19.2625 0.261483C18.9133 -0.088767 18.3495 -0.0865709 18.0011 0.264561C17.6537 0.617007 17.6554 1.18699 18.0042 1.53768C20.0758 3.61808 21.2166 6.39195 21.2166 9.34864C21.2166 15.4448 16.3026 20.4046 10.2623 20.4046C7.33293 20.4046 4.58467 19.2532 2.52392 17.1631C2.17647 16.8116 1.61132 16.808 1.263 17.1596C0.91379 17.5103 0.912052 18.0798 1.2595 18.4323Z" fill="white"/>
<path fill-rule="evenodd" clip-rule="evenodd" d="M9.5 19C14.7385 19 19 14.7385 19 9.50045C19 4.26197 14.7385 0 9.5 0C4.26152 0 0 4.26197 0 9.50045C0 14.7385 4.26153 19 9.5 19ZM9.5 17.1568C8.82781 17.1568 8.17907 17.0609 7.55745 16.8975L8.52214 16.0966L10.9665 15.5098L13.24 16.057L13.2563 16.1648C12.1452 16.7935 10.8651 17.1568 9.5 17.1568ZM17.1568 9.50045C17.1568 8.24208 16.8462 7.05682 16.3061 6.00843L14.9801 7.01328V10.0364L16.4161 10.6156C16.5673 10.6763 16.6996 10.7762 16.7995 10.9049L16.9772 11.1338C17.0922 10.6069 17.1568 10.0614 17.1568 9.50045ZM8.0781 1.9808L7.78818 3.82052C7.76254 3.98207 7.78053 4.14767 7.84038 4.29978L8.59999 6.24153L8.90104 8.52215L7.11813 10.148H5.98008L5.15747 8.32234C5.03057 8.04064 4.77047 7.84129 4.46537 7.79179L2.1397 7.41345C2.92462 4.64987 5.22093 2.52018 8.0781 1.9808ZM3.68057 9.5315L1.85666 9.23455C1.85538 9.27123 1.85287 9.3076 1.85036 9.34396C1.84679 9.39583 1.84321 9.4477 1.84321 9.50045C1.84321 12.3116 3.37046 14.7668 5.63448 16.0983L7.50964 14.5414C7.61808 14.4514 7.74588 14.3875 7.88314 14.3546L10.7519 13.6657C10.8932 13.6315 11.0408 13.6315 11.183 13.6657L14.2745 14.4104C14.5548 14.478 14.7795 14.6724 14.895 14.9269C15.4167 14.4083 15.8642 13.8153 16.2202 13.1652L15.4958 12.232L13.7138 11.5129C13.3651 11.3725 13.1369 11.0341 13.1369 10.6583V6.55518C13.1369 6.26673 13.2719 5.99492 13.5019 5.82077L15.2691 4.48168C13.9595 2.97811 12.0763 1.99374 9.96198 1.86661L9.6476 3.86102L10.3572 5.67452C10.3843 5.74383 10.4032 5.81582 10.4126 5.88963L10.791 8.7584C10.8306 9.0572 10.7213 9.35691 10.4985 9.55985L8.09643 11.7505C7.92678 11.9053 7.70538 11.9912 7.47543 11.9912H5.38472C5.02247 11.9912 4.69352 11.7788 4.54457 11.4481L3.68057 9.5315Z" fill="white"/>
</svg>
