<svg width="33" height="33" viewBox="0 0 33 33" fill="none" xmlns="http://www.w3.org/2000/svg">
<path d="M27.7671 31.1565H5.06195C3.12997 31.1565 1.5481 29.574 1.5481 27.6239C1.5481 25.6733 3.13036 24.0898 5.06195 24.0898H27.7684C29.6996 24.0898 31.2809 25.6729 31.2809 27.6239C31.2809 29.5742 29.7002 31.1565 27.7671 31.1565Z" stroke="#C7FF00" stroke-width="2"></path>
<path d="M31.3861 28.3611C30.9566 28.3611 30.0856 28.0539 30.0143 27.6229L26.3879 4.95618C26.1656 3.61183 25.235 2.68952 23.9463 2.68952C23.9463 2.68952 18.9238 2.68952 16.4125 2.68952C13.9012 2.68952 8.87864 2.68952 8.87864 2.68952C7.59132 2.68952 6.70305 3.61318 6.47935 4.95618L2.81427 27.6229C2.73467 28.1025 1.77643 28.4232 1.29471 28.3489C0.810252 28.2719 0.480874 27.8193 0.559101 27.341L4.37714 4.33296C4.7422 2.14011 6.71984 0.422852 8.87864 0.422852H23.9463C26.1079 0.422852 28.0855 2.14011 28.4478 4.33431L32.2658 27.3423C32.3454 27.8206 32.0147 28.2719 31.5289 28.3503C31.4822 28.357 31.4342 28.3611 31.3861 28.3611Z" fill="#C7FF00"></path>
<path d="M27.4237 28.5146H5.4049C4.913 28.5146 4.51428 28.1152 4.51428 27.6225C4.51428 27.1298 4.913 26.7305 5.4049 26.7305H27.4237C27.9156 26.7305 28.3143 27.1298 28.3143 27.6225C28.3143 28.1152 27.9169 28.5146 27.4237 28.5146Z" fill="#C7FF00"></path>
</svg>