<svg width="28" height="31" viewBox="0 0 28 31" fill="none" xmlns="http://www.w3.org/2000/svg">
<path fill-rule="evenodd" clip-rule="evenodd" d="M25.8318 7.01328L14.9478 0.730147C14.1953 0.29568 13.2681 0.29568 12.5156 0.730147L1.63162 7.01328C0.878616 7.44802 0.41497 8.25168 0.415528 9.12117V15.4732V17.2399V21.6874C0.41497 22.5569 0.878616 23.3606 1.63162 23.7953L12.5156 30.0784C13.2681 30.5129 14.1953 30.5129 14.9478 30.0784L25.8318 23.7953C26.5848 23.3606 27.0485 22.5569 27.0479 21.6874V15.6193C27.0604 15.538 27.0607 15.4546 27.0479 15.372V9.12117C27.0485 8.25168 26.5848 7.44802 25.8318 7.01328ZM25.4354 15.0252L25.8401 14.793C26.2285 14.5691 26.7249 14.7025 26.9488 15.0909C27.0004 15.1804 27.033 15.2757 27.0479 15.372V15.6193C27.0117 15.8544 26.873 16.0715 26.6508 16.1996L25.4329 16.8987L25.4354 15.0252ZM25.4329 16.8987L20.8539 19.5268V24.7966L25.0211 22.3887C25.2717 22.244 25.4261 21.9768 25.4264 21.6874L25.4329 16.8987ZM25.4354 15.0252L20.8539 17.6541V12.4614C20.858 12.3871 20.858 12.3127 20.8539 12.2384L25.4427 9.59139L25.4354 15.0252ZM2.03698 17.2399V16.8758L6.60948 19.5147V24.7966L2.44234 22.3887C2.19176 22.244 2.03728 21.9768 2.03698 21.6874V17.2399ZM2.03698 9.59139V15.0049L6.62569 17.6419V12.4614C6.62167 12.3871 6.62167 12.3127 6.62569 12.2384L2.03698 9.59139ZM14.1371 2.13676C13.8862 1.99194 13.5772 1.99194 13.3263 2.13676L9.15921 4.54056L13.7317 7.17948L18.3042 4.54056L14.1371 2.13676ZM7.43642 10.8318L2.84771 8.18478L7.53776 5.47695L12.1103 8.10776L7.62289 10.7061L7.43642 10.8318ZM12.921 14.9462V9.52248L8.43361 12.1127C8.30895 12.1847 8.2318 12.3174 8.23093 12.4614V17.646L12.921 14.9462ZM12.921 28.4367L8.23093 25.733V20.4632L12.7183 23.0413C12.7829 23.0807 12.8507 23.1146 12.921 23.1427V28.4367ZM9.04571 19.0526L13.529 21.6388C13.6544 21.7112 13.809 21.7112 13.9344 21.6388L18.4177 19.0526L13.7317 16.3488L9.04571 19.0526ZM19.2325 25.733L14.5424 28.4367V23.1427C14.6127 23.1146 14.6805 23.0807 14.7451 23.0413L19.2325 20.4511V25.733ZM14.5424 14.9462L19.2325 17.6257V12.4614C19.2316 12.3174 19.1545 12.1847 19.0298 12.1127L14.5424 9.52248V14.9462ZM19.8405 10.6859L15.3532 8.10776L19.9257 5.46884L24.6157 8.17667L20.027 10.8318L19.8405 10.6859Z" fill="#C7FF00"></path>
</svg>