	<svg width="33" height="54" viewBox="0 0 33 54" fill="none" xmlns='http://www.w3.org/2000/svg'>
	<path fill-rule="evenodd" clip-rule="evenodd" d="M18.9493 36.2428L18.2738 36.8808L17.5102 35.3521L19.4473 35.7046L18.9493 36.2428ZM13.7489 44.116L8.88395 38.2408L15.0231 40.1209L13.7489 44.116ZM15.1667 46.6671L13.6897 49.1644L13.9851 45.0685L15.1667 46.6671ZM17.2555 53.4609L12.7746 52.3786L13.5213 50.3216L17.2555 53.4609ZM7.63654 30.3027L12.8128 34.3496L8.46447 37.4959L7.63654 30.3027ZM2.44533 3.4193L4.83139 0.877413L6.18273 3.91086L1.87841 6.52504L2.44533 3.4193ZM14.0748 2.59773L12.4689 4.34102L9.83934 0.538721L11.9101 0.460938L14.0748 2.59773ZM29.6067 17.7109L28.2491 8.06962L31.9825 15.4152L29.6067 17.7109ZM23.4283 27.1903L21.4756 19.0073L24.2092 23.1674L24.2228 23.1814L24.2306 23.1943L24.2422 23.2023L24.2551 23.2163L27.4807 25.6626L23.4283 27.1903ZM14.0758 27.2932L23.0862 27.6477L22.9695 31.6736L14.0758 27.2932ZM13.3408 34.1878V27.8933L16.8007 34.8169L13.3408 34.1878ZM14.9445 39.6786L8.74862 37.7815L13.0508 34.6681L14.9445 39.6786ZM12.9465 27.3731V33.9492L7.76144 29.8953L12.9465 27.3731ZM7.57857 29.5408L7.46056 23.436L12.7469 27.0276L7.57857 29.5408ZM9.69967 16.3821L7.16096 22.7609L2.79227 20.0057L9.69967 16.3821ZM4.94694 12.8294L1.86749 6.99773L6.1787 4.37946L4.94694 12.8294ZM6.49168 3.63338L5.19083 0.713459L9.28866 0.55939L6.49168 3.63338ZM6.84463 3.83518L9.56769 0.842365L12.0354 4.41071L6.84463 3.83518ZM12.8247 11.0647L12.6504 4.87681L16.8233 5.25595L16.9656 5.28221L12.8247 11.0647ZM19.8632 10.8921L17.6295 5.40462L22.3291 6.27142L19.8632 10.8921ZM21.3754 17.7635L27.7693 7.49049L29.2378 17.9188L21.3754 17.7635ZM13.5855 20.9243L20.8824 18.2212L22.982 27.0196L13.5855 20.9243ZM13.3408 21.2404L22.5708 27.2273L13.3408 26.8638V21.2404ZM12.9465 21.1611V26.6811L7.68811 23.1095L12.9465 21.1611ZM10.1202 16.3935L12.8464 20.7724L7.60475 22.7142L10.1202 16.3935ZM5.63757 13.524L12.2333 11.9598L10.0062 15.6966L5.63757 13.524ZM5.15668 13.7303L9.64328 15.9615L2.78144 19.5611L5.15668 13.7303ZM6.56461 4.46633L12.2906 11.5355L5.2922 13.1952L6.56461 4.46633ZM12.4306 11.0785L6.89394 4.24306L12.2549 4.83737L12.4306 11.0785ZM13.043 11.4403L17.2618 5.54921L19.5494 11.169L13.043 11.4403ZM18.8604 11.598L10.5844 15.4994L12.758 11.8525L18.8604 11.598ZM20.0588 11.4637L27.3184 7.46563L21.1255 17.4158L20.0588 11.4637ZM13.1537 20.5167L10.3679 16.0423L19.2452 11.8572L13.1537 20.5167ZM19.7288 11.8584L20.7983 17.8266L13.6738 20.4658L19.7288 11.8584ZM24.407 22.7471L21.3952 18.164L28.9835 18.3139L24.407 22.7471ZM27.2783 7.03268L20.3284 10.8606L22.7394 6.34271L27.2783 7.03268ZM16.3142 4.80812L12.8666 4.49489L14.3573 2.87661L16.3142 4.80812ZM1.66739 7.46563L4.74163 13.2875L0.0282593 13.7627L1.66739 7.46563ZM0.0561129 14.1619L4.74694 13.689L2.38696 19.4823L0.0561129 14.1619ZM8.2938 43.2732L8.48415 38.3796L13.3221 44.2228L8.2938 43.2732ZM8.27806 43.6776L13.2664 44.6192L8.12412 47.6327L8.27806 43.6776ZM12.4326 52.1629L8.70108 48.4854L13.1788 50.108L12.4326 52.1629ZM8.38051 47.9452L13.6031 44.8838L13.2549 49.7106L8.38051 47.9452ZM15.352 39.6397L13.4528 34.6152L17.024 35.2642L17.9735 37.1644L15.352 39.6397ZM19.7693 35.3571L17.2869 34.9058L13.5842 27.4949L22.8306 32.0501L19.7693 35.3571ZM27.7593 25.3751L24.6778 23.0376L29.1417 18.7136L27.7593 25.3751ZM32.0283 14.6326L28.2616 7.2216L32.0283 8.14791V14.6326Z" fill="rgba(194,20,45)"></path>
	</svg>